<svg width="32" height="32" viewBox="0 0 32 32" fill="none" xmlns="http://www.w3.org/2000/svg" role="img" aria-label="VeciIA">
  <defs>
    <linearGradient id="veciia-grad" x1="6" y1="4" x2="26" y2="28" gradientUnits="userSpaceOnUse">
      <stop stop-color="#2ecc71"/>
      <stop offset="1" stop-color="#1e8449"/>
    </linearGradient>
  </defs>
  <rect width="32" height="32" rx="9" fill="url(#veciia-grad)"/>
  <circle cx="10.5" cy="22.5" r="1.6" fill="white" opacity="0.65"/>
  <circle cx="16" cy="24.5" r="1.8" fill="white" opacity="0.85"/>
  <circle cx="21.5" cy="22.5" r="1.6" fill="white" opacity="0.65"/>
  <path d="M16 7.8c-3.09 0-5.6 2.51-5.6 5.6 0 3.95 5.6 8.85 5.6 8.85s5.6-4.9 5.6-8.85c0-3.09-2.51-5.6-5.6-5.6z" fill="white"/>
  <circle cx="16" cy="13.2" r="2.35" fill="#ff5a43"/>
  <path d="M24.2 7.8l.85 1.72 1.9.28-1.38 1.34.32 1.9-1.69-.88-1.69.88.32-1.9-1.38-1.34 1.9-.28.85-1.72z" fill="white" opacity="0.92"/>
</svg>
